<?xml version="1.0" encoding="utf-8"?>
<!-- Generator: Adobe Illustrator 17.1.0, SVG Export Plug-In . SVG Version: 6.00 Build 0)  -->
<!DOCTYPE svg PUBLIC "-//W3C//DTD SVG 1.1//EN" "http://www.w3.org/Graphics/SVG/1.1/DTD/svg11.dtd">
<svg version="1.1" id="Ember_Topcoat" xmlns="http://www.w3.org/2000/svg" xmlns:xlink="http://www.w3.org/1999/xlink" x="0px"
	 y="0px" viewBox="0 0 480 480" enable-background="new 0 0 480 480" xml:space="preserve">
<g id="Hat">
	<rect x="5.9" y="320.2" width="468.3" height="28"/>
	<path fill="#F23818" d="M149,10.4h-34.6c-4.6,0-8.3,3.7-8.3,8.3v274.6c0,4.6,3.7,8.3,8.3,8.3H149c4.6,0,8.3-3.7,8.3-8.3V18.7
		C157.3,14.1,153.6,10.4,149,10.4z"/>
	<rect x="187" y="10" width="186" height="291"/>
</g>
<g id="Tie">
	<path d="M173.9,376.2l66.1,42.9l-66.1,42.9c-4.4,4.4-11.9,1.3-11.9-4.9v-75.9C162.1,374.9,169.6,371.8,173.9,376.2z"/>
	<path fill="#F23818" d="M306,376.3l-66,42.8l66,42.8c4.4,4.4,12,1.3,12-5v-75.6C317.9,375,310.4,371.9,306,376.3z"/>
	<g display="none">
		<path display="inline" d="M254.3,419.1c0-8.2-6.7-14.9-14.9-14.9c0,0,10.5,4.4,0,14.9c-10.5,10.5,0,14.9,0,14.9
			C247.6,433.9,254.3,427.3,254.3,419.1z"/>
		<path display="inline" fill="#F23818" d="M239.4,419.1c10.5-10.5,0-14.9,0-14.9c-8.2,0-14.9,6.7-14.9,14.9
			c0,8.2,6.7,14.9,14.9,14.9C239.4,433.9,229,429.5,239.4,419.1z"/>
	</g>
</g>
</svg>
