<?xml version="1.0" encoding="utf-8"?>
<!-- Generator: Adobe Illustrator 17.1.0, SVG Export Plug-In . SVG Version: 6.00 Build 0)  -->
<!DOCTYPE svg PUBLIC "-//W3C//DTD SVG 1.1//EN" "http://www.w3.org/Graphics/SVG/1.1/DTD/svg11.dtd">
<svg version="1.1" id="Layer_1" xmlns="http://www.w3.org/2000/svg" xmlns:xlink="http://www.w3.org/1999/xlink" x="0px" y="0px"
	 viewBox="0 0 300 300" enable-background="new 0 0 300 300" xml:space="preserve">
<g>
	<linearGradient id="SVGID_1_" gradientUnits="userSpaceOnUse" x1="57.4886" y1="138.4293" x2="96.3042" y2="138.4293">
		<stop  offset="0" style="stop-color:#FF7219"/>
		<stop  offset="1" style="stop-color:#F23818"/>
	</linearGradient>
	<path fill="url(#SVGID_1_)" d="M93.5,51.1c-21.9-5.7-36-14.7-36-24.7L64.4,228h0.1c0,9,12.4,17.2,31.8,22.5L93.5,51.1z"/>
	<linearGradient id="SVGID_2_" gradientUnits="userSpaceOnUse" x1="127.7116" y1="141.6278" x2="242.5114" y2="141.6278">
		<stop  offset="0" style="stop-color:#333333"/>
		<stop  offset="1" style="stop-color:#000000"/>
	</linearGradient>
	<path fill="url(#SVGID_2_)" d="M150,57.6c-7.4,0-14.5-0.3-21.4-0.8l-0.9,199.1c7.1,0.6,14.6,0.9,22.3,0.9
		c47.2,0,85.5-12.9,85.5-28.9h0.1l6.9-201.6C242.5,43.6,201.1,57.6,150,57.6z"/>
	<linearGradient id="SVGID_3_" gradientUnits="userSpaceOnUse" x1="4.6653" y1="250.8425" x2="295.3347" y2="250.8425">
		<stop  offset="0" style="stop-color:#333333"/>
		<stop  offset="1" style="stop-color:#000000"/>
	</linearGradient>
	<path fill="url(#SVGID_3_)" d="M252.2,202.7l-0.3,13.6c3.7,4.2,5.8,8.8,5.8,13.5c0,23-48.2,41.6-107.6,41.6S42.4,252.8,42.4,229.8
		c0-4.4,1.8-8.6,5-12.6L47.1,203c-26.2,10.2-42.4,24.2-42.4,39.7C4.7,273.8,69.7,299,150,299s145.3-25.2,145.3-56.2
		C295.3,227.1,278.8,212.9,252.2,202.7z"/>
	<linearGradient id="SVGID_4_" gradientUnits="userSpaceOnUse" x1="65.4907" y1="17.7374" x2="234.5093" y2="17.7374">
		<stop  offset="0" style="stop-color:#FF7219"/>
		<stop  offset="1" style="stop-color:#F23818"/>
	</linearGradient>
	<path fill="url(#SVGID_4_)" d="M150,12.4c41.9,0,76.4,9.7,80.6,22.1c2.5-2.4,3.9-5,3.9-7.7C234.5,12.5,196.7,1,150,1
		S65.5,12.5,65.5,26.7c0,2.7,1.4,5.3,3.9,7.7C73.6,22,108.1,12.4,150,12.4z"/>
</g>
</svg>
