<svg xmlns="http://www.w3.org/2000/svg" viewBox="0 0 300 300" enable-background="new 0 0 300 300"><linearGradient id="a" gradientUnits="userSpaceOnUse" x1="57.489" y1="138.429" x2="96.304" y2="138.429"><stop offset="0" stop-color="#FF7219"/><stop offset="1" stop-color="#F23818"/></linearGradient><path fill="url(#a)" d="M93.5 51.1c-21.9-5.7-36-14.7-36-24.7l6.9 201.6h.1c0 9 12.4 17.2 31.8 22.5l-2.8-199.4z"/><linearGradient id="b" gradientUnits="userSpaceOnUse" x1="127.712" y1="141.628" x2="242.511" y2="141.628"><stop offset="0" stop-color="#333"/><stop offset="1"/></linearGradient><path fill="url(#b)" d="M150 57.6c-7.4 0-14.5-.3-21.4-.8l-.9 199.1c7.1.6 14.6.9 22.3.9 47.2 0 85.5-12.9 85.5-28.9h.1l6.9-201.6c0 17.3-41.4 31.3-92.5 31.3z"/><linearGradient id="c" gradientUnits="userSpaceOnUse" x1="4.665" y1="250.843" x2="295.335" y2="250.843"><stop offset="0" stop-color="#333"/><stop offset="1"/></linearGradient><path fill="url(#c)" d="M252.2 202.7l-.3 13.6c3.7 4.2 5.8 8.8 5.8 13.5 0 23-48.2 41.6-107.6 41.6s-107.7-18.6-107.7-41.6c0-4.4 1.8-8.6 5-12.6l-.3-14.2c-26.2 10.2-42.4 24.2-42.4 39.7 0 31.1 65 56.3 145.3 56.3s145.3-25.2 145.3-56.2c0-15.7-16.5-29.9-43.1-40.1z"/><linearGradient id="d" gradientUnits="userSpaceOnUse" x1="65.491" y1="17.737" x2="234.509" y2="17.737"><stop offset="0" stop-color="#FF7219"/><stop offset="1" stop-color="#F23818"/></linearGradient><path fill="url(#d)" d="M150 12.4c41.9 0 76.4 9.7 80.6 22.1 2.5-2.4 3.9-5 3.9-7.7 0-14.3-37.8-25.8-84.5-25.8s-84.5 11.5-84.5 25.7c0 2.7 1.4 5.3 3.9 7.7 4.2-12.4 38.7-22 80.6-22z"/></svg>